# xmcd
#
# Track frame offsets: 
#        150
#        16752
#        29725
#        44565
#        58750
#        73622
#        88672
#        102095
#        116575
#        130300
#        150015
#        163907
#        180100
#        191577
#        209270
#        222080
#        233587
#        246327
#        258100
#        272942
#
# Disc length: 3804 seconds
#
# Revision: 3
# Processed by: cddbd v1.5.1PL0 Copyright (c) Steve Scherf et al.
# Submitted via: ExactAudioCopy v0.95a4
#
DISCID=120eda14
DTITLE=Ray Charles - His Greatest Hits Vol I.
DYEAR=1987
DGENRE=Blues
TTITLE0=Georgia On My Mind
TTITLE1=Unchain My Heart
TTITLE2=Born To Lose
TTITLE3=One Mint Julip
TTITLE4=You Don't Know Me
TTITLE5=Smack Dab In The Middle
TTITLE6=Crying Time
TTITLE7=Hide Nor Hair
TTITLE8=Let's Go Get Stoned
TTITLE9=That Lucky Old Sun
TTITLE10=Don't Change On Me
TTITLE11=Your Cheating Heart
TTITLE12=I Don't Need No Doctor
TTITLE13=Careless Love
TTITLE14=My Heart Cries For You
TTITLE15=I Chose To Sing The Blues
TTITLE16=If You Were Mine
TTITLE17=Baby Don't You Cry
TTITLE18=Here We Go Again
TTITLE19=Yesterday
EXTD=
EXTT0=
EXTT1=
EXTT2=
EXTT3=
EXTT4=
EXTT5=
EXTT6=
EXTT7=
EXTT8=
EXTT9=
EXTT10=
EXTT11=
EXTT12=
EXTT13=
EXTT14=
EXTT15=
EXTT16=
EXTT17=
EXTT18=
EXTT19=
PLAYORDER=
